<mxfile host="app.diagrams.net" modified="2023-05-23T09:26:15.872Z" agent="Mozilla/5.0 (Windows NT 10.0; Win64; x64) AppleWebKit/537.36 (KHTML, like Gecko) Chrome/113.0.0.0 Safari/537.36" etag="k1caq19QWgzxAmkEZGBY" version="21.2.9" type="device">
  <diagram id="C5RBs43oDa-KdzZeNtuy" name="Page-1">
    <mxGraphModel dx="3871" dy="1375" grid="1" gridSize="10" guides="1" tooltips="1" connect="1" arrows="1" fold="1" page="1" pageScale="1" pageWidth="827" pageHeight="1169" math="0" shadow="0">
      <root>
        <mxCell id="WIyWlLk6GJQsqaUBKTNV-0" />
        <mxCell id="WIyWlLk6GJQsqaUBKTNV-1" parent="WIyWlLk6GJQsqaUBKTNV-0" />
        <mxCell id="WIyWlLk6GJQsqaUBKTNV-3" value="시작" style="rounded=1;whiteSpace=wrap;html=1;fontSize=12;glass=0;strokeWidth=1;shadow=0;" parent="WIyWlLk6GJQsqaUBKTNV-1" vertex="1">
          <mxGeometry x="160" width="120" height="40" as="geometry" />
        </mxCell>
        <mxCell id="WIyWlLk6GJQsqaUBKTNV-4" value="No" style="rounded=0;html=1;jettySize=auto;orthogonalLoop=1;fontSize=11;endArrow=block;endFill=0;endSize=8;strokeWidth=1;shadow=0;labelBackgroundColor=none;edgeStyle=orthogonalEdgeStyle;" parent="WIyWlLk6GJQsqaUBKTNV-1" source="WIyWlLk6GJQsqaUBKTNV-6" target="WIyWlLk6GJQsqaUBKTNV-10" edge="1">
          <mxGeometry y="20" relative="1" as="geometry">
            <mxPoint as="offset" />
          </mxGeometry>
        </mxCell>
        <mxCell id="WIyWlLk6GJQsqaUBKTNV-5" value="Yes" style="edgeStyle=orthogonalEdgeStyle;rounded=0;html=1;jettySize=auto;orthogonalLoop=1;fontSize=11;endArrow=block;endFill=0;endSize=8;strokeWidth=1;shadow=0;labelBackgroundColor=none;" parent="WIyWlLk6GJQsqaUBKTNV-1" source="WIyWlLk6GJQsqaUBKTNV-6" target="WIyWlLk6GJQsqaUBKTNV-7" edge="1">
          <mxGeometry y="10" relative="1" as="geometry">
            <mxPoint as="offset" />
          </mxGeometry>
        </mxCell>
        <mxCell id="WIyWlLk6GJQsqaUBKTNV-6" value="38광 포함" style="rhombus;whiteSpace=wrap;html=1;shadow=0;fontFamily=Helvetica;fontSize=12;align=center;strokeWidth=1;spacing=6;spacingTop=-4;" parent="WIyWlLk6GJQsqaUBKTNV-1" vertex="1">
          <mxGeometry x="170" y="180" width="100" height="80" as="geometry" />
        </mxCell>
        <mxCell id="WIyWlLk6GJQsqaUBKTNV-7" value="끝" style="rounded=1;whiteSpace=wrap;html=1;fontSize=12;glass=0;strokeWidth=1;shadow=0;" parent="WIyWlLk6GJQsqaUBKTNV-1" vertex="1">
          <mxGeometry x="320" y="200" width="120" height="40" as="geometry" />
        </mxCell>
        <mxCell id="WIyWlLk6GJQsqaUBKTNV-9" value="Yes" style="edgeStyle=orthogonalEdgeStyle;rounded=0;html=1;jettySize=auto;orthogonalLoop=1;fontSize=11;endArrow=block;endFill=0;endSize=8;strokeWidth=1;shadow=0;labelBackgroundColor=none;" parent="WIyWlLk6GJQsqaUBKTNV-1" source="WIyWlLk6GJQsqaUBKTNV-10" edge="1">
          <mxGeometry y="10" relative="1" as="geometry">
            <mxPoint as="offset" />
            <mxPoint x="320" y="340" as="targetPoint" />
          </mxGeometry>
        </mxCell>
        <mxCell id="WIyWlLk6GJQsqaUBKTNV-10" value="18광,13광 포함" style="rhombus;whiteSpace=wrap;html=1;shadow=0;fontFamily=Helvetica;fontSize=12;align=center;strokeWidth=1;spacing=6;spacingTop=-4;" parent="WIyWlLk6GJQsqaUBKTNV-1" vertex="1">
          <mxGeometry x="170" y="300" width="100" height="80" as="geometry" />
        </mxCell>
        <mxCell id="ulqVyQK4VO_cFcRg7Q2b-0" value="중복없이 카드뽑기" style="rounded=0;whiteSpace=wrap;html=1;" vertex="1" parent="WIyWlLk6GJQsqaUBKTNV-1">
          <mxGeometry x="160" y="70" width="120" height="40" as="geometry" />
        </mxCell>
        <mxCell id="ulqVyQK4VO_cFcRg7Q2b-3" value="" style="rounded=0;html=1;jettySize=auto;orthogonalLoop=1;fontSize=11;endArrow=block;endFill=0;endSize=8;strokeWidth=1;shadow=0;labelBackgroundColor=none;edgeStyle=orthogonalEdgeStyle;exitX=0.5;exitY=1;exitDx=0;exitDy=0;" edge="1" parent="WIyWlLk6GJQsqaUBKTNV-1" source="ulqVyQK4VO_cFcRg7Q2b-0">
          <mxGeometry y="20" relative="1" as="geometry">
            <mxPoint as="offset" />
            <mxPoint x="230" y="270" as="sourcePoint" />
            <mxPoint x="220" y="180" as="targetPoint" />
          </mxGeometry>
        </mxCell>
        <mxCell id="ulqVyQK4VO_cFcRg7Q2b-5" value="" style="rounded=0;html=1;jettySize=auto;orthogonalLoop=1;fontSize=11;endArrow=block;endFill=0;endSize=8;strokeWidth=1;shadow=0;labelBackgroundColor=none;edgeStyle=orthogonalEdgeStyle;exitX=0.5;exitY=1;exitDx=0;exitDy=0;" edge="1" parent="WIyWlLk6GJQsqaUBKTNV-1" source="WIyWlLk6GJQsqaUBKTNV-3">
          <mxGeometry y="20" relative="1" as="geometry">
            <mxPoint as="offset" />
            <mxPoint x="230" y="120" as="sourcePoint" />
            <mxPoint x="220" y="70" as="targetPoint" />
          </mxGeometry>
        </mxCell>
        <mxCell id="ulqVyQK4VO_cFcRg7Q2b-6" value="나머지 카드도 18광,13광 포함" style="rhombus;whiteSpace=wrap;html=1;shadow=0;fontFamily=Helvetica;fontSize=12;align=center;strokeWidth=1;spacing=6;spacingTop=-4;" vertex="1" parent="WIyWlLk6GJQsqaUBKTNV-1">
          <mxGeometry x="320" y="290" width="130" height="100" as="geometry" />
        </mxCell>
        <mxCell id="ulqVyQK4VO_cFcRg7Q2b-8" value="Yes" style="rounded=0;html=1;jettySize=auto;orthogonalLoop=1;fontSize=11;endArrow=block;endFill=0;endSize=8;strokeWidth=1;shadow=0;labelBackgroundColor=none;edgeStyle=orthogonalEdgeStyle;exitX=1;exitY=0.5;exitDx=0;exitDy=0;entryX=1;entryY=0.5;entryDx=0;entryDy=0;" edge="1" parent="WIyWlLk6GJQsqaUBKTNV-1" source="ulqVyQK4VO_cFcRg7Q2b-6" target="ulqVyQK4VO_cFcRg7Q2b-0">
          <mxGeometry y="20" relative="1" as="geometry">
            <mxPoint as="offset" />
            <mxPoint x="230" y="120" as="sourcePoint" />
            <mxPoint x="220" y="130" as="targetPoint" />
            <Array as="points">
              <mxPoint x="460" y="340" />
              <mxPoint x="460" y="90" />
            </Array>
          </mxGeometry>
        </mxCell>
        <mxCell id="ulqVyQK4VO_cFcRg7Q2b-10" value="Yes" style="rounded=0;html=1;jettySize=auto;orthogonalLoop=1;fontSize=11;endArrow=block;endFill=0;endSize=8;strokeWidth=1;shadow=0;labelBackgroundColor=none;edgeStyle=orthogonalEdgeStyle;exitX=0;exitY=0.5;exitDx=0;exitDy=0;" edge="1" parent="WIyWlLk6GJQsqaUBKTNV-1" source="WIyWlLk6GJQsqaUBKTNV-10">
          <mxGeometry x="0.3333" y="20" relative="1" as="geometry">
            <mxPoint as="offset" />
            <mxPoint x="230" y="390" as="sourcePoint" />
            <mxPoint x="120" y="340" as="targetPoint" />
          </mxGeometry>
        </mxCell>
        <mxCell id="ulqVyQK4VO_cFcRg7Q2b-11" value="나머지 카드가 &lt;br&gt;47 암행어사 포함" style="rhombus;whiteSpace=wrap;html=1;shadow=0;fontFamily=Helvetica;fontSize=12;align=center;strokeWidth=1;spacing=6;spacingTop=-4;" vertex="1" parent="WIyWlLk6GJQsqaUBKTNV-1">
          <mxGeometry x="-20" y="290" width="140" height="100" as="geometry" />
        </mxCell>
        <mxCell id="ulqVyQK4VO_cFcRg7Q2b-12" value="끝" style="rounded=1;whiteSpace=wrap;html=1;fontSize=12;glass=0;strokeWidth=1;shadow=0;" vertex="1" parent="WIyWlLk6GJQsqaUBKTNV-1">
          <mxGeometry x="-220" y="320" width="120" height="40" as="geometry" />
        </mxCell>
        <mxCell id="ulqVyQK4VO_cFcRg7Q2b-13" value="Yes" style="edgeStyle=orthogonalEdgeStyle;rounded=0;html=1;jettySize=auto;orthogonalLoop=1;fontSize=11;endArrow=block;endFill=0;endSize=8;strokeWidth=1;shadow=0;labelBackgroundColor=none;exitX=0;exitY=0.5;exitDx=0;exitDy=0;entryX=1;entryY=0.5;entryDx=0;entryDy=0;" edge="1" parent="WIyWlLk6GJQsqaUBKTNV-1" source="ulqVyQK4VO_cFcRg7Q2b-11" target="ulqVyQK4VO_cFcRg7Q2b-12">
          <mxGeometry y="10" relative="1" as="geometry">
            <mxPoint as="offset" />
            <mxPoint x="280" y="230" as="sourcePoint" />
            <mxPoint x="-20" y="340" as="targetPoint" />
          </mxGeometry>
        </mxCell>
        <mxCell id="ulqVyQK4VO_cFcRg7Q2b-15" value="No" style="rounded=0;html=1;jettySize=auto;orthogonalLoop=1;fontSize=11;endArrow=block;endFill=0;endSize=8;strokeWidth=1;shadow=0;labelBackgroundColor=none;edgeStyle=orthogonalEdgeStyle;exitX=0.5;exitY=1;exitDx=0;exitDy=0;" edge="1" parent="WIyWlLk6GJQsqaUBKTNV-1" source="ulqVyQK4VO_cFcRg7Q2b-11">
          <mxGeometry x="0.3333" y="20" relative="1" as="geometry">
            <mxPoint as="offset" />
            <mxPoint x="230" y="390" as="sourcePoint" />
            <mxPoint x="220" y="410" as="targetPoint" />
            <Array as="points">
              <mxPoint x="70" y="410" />
              <mxPoint x="221" y="410" />
            </Array>
          </mxGeometry>
        </mxCell>
        <mxCell id="ulqVyQK4VO_cFcRg7Q2b-16" value="No" style="rounded=0;html=1;jettySize=auto;orthogonalLoop=1;fontSize=11;endArrow=block;endFill=0;endSize=8;strokeWidth=1;shadow=0;labelBackgroundColor=none;edgeStyle=orthogonalEdgeStyle;exitX=0.5;exitY=1;exitDx=0;exitDy=0;" edge="1" parent="WIyWlLk6GJQsqaUBKTNV-1" source="ulqVyQK4VO_cFcRg7Q2b-6">
          <mxGeometry x="0.3333" y="20" relative="1" as="geometry">
            <mxPoint as="offset" />
            <mxPoint x="80" y="390" as="sourcePoint" />
            <mxPoint x="220" y="410" as="targetPoint" />
            <Array as="points">
              <mxPoint x="370" y="410" />
              <mxPoint x="230" y="410" />
            </Array>
          </mxGeometry>
        </mxCell>
        <mxCell id="ulqVyQK4VO_cFcRg7Q2b-25" value="끝" style="rounded=1;whiteSpace=wrap;html=1;fontSize=12;glass=0;strokeWidth=1;shadow=0;" vertex="1" parent="WIyWlLk6GJQsqaUBKTNV-1">
          <mxGeometry x="160" y="1080" width="120" height="40" as="geometry" />
        </mxCell>
        <mxCell id="ulqVyQK4VO_cFcRg7Q2b-26" value="No" style="rounded=0;html=1;jettySize=auto;orthogonalLoop=1;fontSize=11;endArrow=block;endFill=0;endSize=8;strokeWidth=1;shadow=0;labelBackgroundColor=none;edgeStyle=orthogonalEdgeStyle;exitX=0;exitY=0.5;exitDx=0;exitDy=0;" edge="1" parent="WIyWlLk6GJQsqaUBKTNV-1" source="ulqVyQK4VO_cFcRg7Q2b-56">
          <mxGeometry x="0.3333" y="20" relative="1" as="geometry">
            <mxPoint as="offset" />
            <mxPoint x="-80.5" y="822.5" as="sourcePoint" />
            <mxPoint x="-100" y="857" as="targetPoint" />
          </mxGeometry>
        </mxCell>
        <mxCell id="ulqVyQK4VO_cFcRg7Q2b-61" value="Yes" style="edgeLabel;html=1;align=center;verticalAlign=middle;resizable=0;points=[];" vertex="1" connectable="0" parent="ulqVyQK4VO_cFcRg7Q2b-26">
          <mxGeometry x="0.1703" y="7" relative="1" as="geometry">
            <mxPoint as="offset" />
          </mxGeometry>
        </mxCell>
        <mxCell id="ulqVyQK4VO_cFcRg7Q2b-32" value="Yes" style="edgeStyle=orthogonalEdgeStyle;rounded=0;html=1;jettySize=auto;orthogonalLoop=1;fontSize=11;endArrow=block;endFill=0;endSize=8;strokeWidth=1;shadow=0;labelBackgroundColor=none;exitX=0;exitY=0.5;exitDx=0;exitDy=0;entryX=0;entryY=0.5;entryDx=0;entryDy=0;" edge="1" parent="WIyWlLk6GJQsqaUBKTNV-1" source="ulqVyQK4VO_cFcRg7Q2b-28" target="ulqVyQK4VO_cFcRg7Q2b-0">
          <mxGeometry y="10" relative="1" as="geometry">
            <mxPoint as="offset" />
            <mxPoint x="280" y="230" as="sourcePoint" />
            <mxPoint x="70" y="100" as="targetPoint" />
            <Array as="points">
              <mxPoint x="-230" y="500" />
              <mxPoint x="-230" y="90" />
            </Array>
          </mxGeometry>
        </mxCell>
        <mxCell id="ulqVyQK4VO_cFcRg7Q2b-35" value="No" style="rounded=0;html=1;jettySize=auto;orthogonalLoop=1;fontSize=11;endArrow=block;endFill=0;endSize=8;strokeWidth=1;shadow=0;labelBackgroundColor=none;edgeStyle=orthogonalEdgeStyle;exitX=0.5;exitY=1;exitDx=0;exitDy=0;" edge="1" parent="WIyWlLk6GJQsqaUBKTNV-1" source="ulqVyQK4VO_cFcRg7Q2b-28">
          <mxGeometry x="0.3333" y="20" relative="1" as="geometry">
            <mxPoint as="offset" />
            <mxPoint x="220" y="585" as="sourcePoint" />
            <mxPoint x="220" y="570" as="targetPoint" />
            <Array as="points" />
          </mxGeometry>
        </mxCell>
        <mxCell id="ulqVyQK4VO_cFcRg7Q2b-36" value="No" style="rounded=0;html=1;jettySize=auto;orthogonalLoop=1;fontSize=11;endArrow=block;endFill=0;endSize=8;strokeWidth=1;shadow=0;labelBackgroundColor=none;edgeStyle=orthogonalEdgeStyle;" edge="1" parent="WIyWlLk6GJQsqaUBKTNV-1" source="WIyWlLk6GJQsqaUBKTNV-10">
          <mxGeometry x="0.3333" y="20" relative="1" as="geometry">
            <mxPoint as="offset" />
            <mxPoint x="220" y="380" as="sourcePoint" />
            <mxPoint x="220" y="460" as="targetPoint" />
          </mxGeometry>
        </mxCell>
        <mxCell id="ulqVyQK4VO_cFcRg7Q2b-28" value="94포함" style="rhombus;whiteSpace=wrap;html=1;" vertex="1" parent="WIyWlLk6GJQsqaUBKTNV-1">
          <mxGeometry x="180" y="460" width="80" height="80" as="geometry" />
        </mxCell>
        <mxCell id="ulqVyQK4VO_cFcRg7Q2b-37" value="떙 포함" style="rhombus;whiteSpace=wrap;html=1;" vertex="1" parent="WIyWlLk6GJQsqaUBKTNV-1">
          <mxGeometry x="180" y="570" width="80" height="80" as="geometry" />
        </mxCell>
        <mxCell id="ulqVyQK4VO_cFcRg7Q2b-40" value="" style="rounded=0;html=1;jettySize=auto;orthogonalLoop=1;fontSize=11;endArrow=block;endFill=0;endSize=8;strokeWidth=1;shadow=0;labelBackgroundColor=none;edgeStyle=orthogonalEdgeStyle;exitX=0.5;exitY=1;exitDx=0;exitDy=0;exitPerimeter=0;" edge="1" parent="WIyWlLk6GJQsqaUBKTNV-1" source="ulqVyQK4VO_cFcRg7Q2b-58">
          <mxGeometry x="0.3333" y="20" relative="1" as="geometry">
            <mxPoint as="offset" />
            <mxPoint x="190" y="1070" as="sourcePoint" />
            <mxPoint x="220" y="1080" as="targetPoint" />
            <Array as="points">
              <mxPoint x="220" y="1070" />
            </Array>
          </mxGeometry>
        </mxCell>
        <mxCell id="ulqVyQK4VO_cFcRg7Q2b-41" value="나머지 카드가 &lt;br&gt;37 땡잡이 포함" style="rhombus;whiteSpace=wrap;html=1;shadow=0;fontFamily=Helvetica;fontSize=12;align=center;strokeWidth=1;spacing=6;spacingTop=-4;" vertex="1" parent="WIyWlLk6GJQsqaUBKTNV-1">
          <mxGeometry x="-30" y="560" width="140" height="100" as="geometry" />
        </mxCell>
        <mxCell id="ulqVyQK4VO_cFcRg7Q2b-42" value="No" style="rounded=0;html=1;jettySize=auto;orthogonalLoop=1;fontSize=11;endArrow=block;endFill=0;endSize=8;strokeWidth=1;shadow=0;labelBackgroundColor=none;edgeStyle=orthogonalEdgeStyle;exitX=0.5;exitY=1;exitDx=0;exitDy=0;" edge="1" parent="WIyWlLk6GJQsqaUBKTNV-1">
          <mxGeometry x="0.3333" y="20" relative="1" as="geometry">
            <mxPoint as="offset" />
            <mxPoint x="40" y="660" as="sourcePoint" />
            <mxPoint x="220" y="680" as="targetPoint" />
            <Array as="points">
              <mxPoint x="60" y="680" />
              <mxPoint x="211" y="680" />
            </Array>
          </mxGeometry>
        </mxCell>
        <mxCell id="ulqVyQK4VO_cFcRg7Q2b-45" value="No" style="rounded=0;html=1;jettySize=auto;orthogonalLoop=1;fontSize=11;endArrow=block;endFill=0;endSize=8;strokeWidth=1;shadow=0;labelBackgroundColor=none;edgeStyle=orthogonalEdgeStyle;" edge="1" parent="WIyWlLk6GJQsqaUBKTNV-1">
          <mxGeometry x="0.3333" y="20" relative="1" as="geometry">
            <mxPoint as="offset" />
            <mxPoint x="220" y="650" as="sourcePoint" />
            <mxPoint x="220" y="700" as="targetPoint" />
            <Array as="points">
              <mxPoint x="220" y="680" />
              <mxPoint x="220" y="680" />
            </Array>
          </mxGeometry>
        </mxCell>
        <mxCell id="ulqVyQK4VO_cFcRg7Q2b-46" value="Yes" style="rounded=0;html=1;jettySize=auto;orthogonalLoop=1;fontSize=11;endArrow=block;endFill=0;endSize=8;strokeWidth=1;shadow=0;labelBackgroundColor=none;edgeStyle=orthogonalEdgeStyle;exitX=0;exitY=0.5;exitDx=0;exitDy=0;" edge="1" parent="WIyWlLk6GJQsqaUBKTNV-1" source="ulqVyQK4VO_cFcRg7Q2b-41">
          <mxGeometry x="0.3333" y="20" relative="1" as="geometry">
            <mxPoint as="offset" />
            <mxPoint x="190" y="622" as="sourcePoint" />
            <mxPoint x="-280" y="600" as="targetPoint" />
            <Array as="points">
              <mxPoint x="-30" y="622" />
              <mxPoint x="-120" y="622" />
              <mxPoint x="-120" y="620" />
              <mxPoint x="-280" y="620" />
            </Array>
          </mxGeometry>
        </mxCell>
        <mxCell id="ulqVyQK4VO_cFcRg7Q2b-47" value="끝" style="rounded=1;whiteSpace=wrap;html=1;fontSize=12;glass=0;strokeWidth=1;shadow=0;" vertex="1" parent="WIyWlLk6GJQsqaUBKTNV-1">
          <mxGeometry x="-220" y="837.5" width="120" height="40" as="geometry" />
        </mxCell>
        <mxCell id="ulqVyQK4VO_cFcRg7Q2b-48" value="떙 포함" style="rhombus;whiteSpace=wrap;html=1;" vertex="1" parent="WIyWlLk6GJQsqaUBKTNV-1">
          <mxGeometry x="180" y="700" width="80" height="80" as="geometry" />
        </mxCell>
        <mxCell id="ulqVyQK4VO_cFcRg7Q2b-50" value="No" style="rounded=0;html=1;jettySize=auto;orthogonalLoop=1;fontSize=11;endArrow=block;endFill=0;endSize=8;strokeWidth=1;shadow=0;labelBackgroundColor=none;edgeStyle=orthogonalEdgeStyle;entryX=0.53;entryY=0.129;entryDx=0;entryDy=0;entryPerimeter=0;" edge="1" parent="WIyWlLk6GJQsqaUBKTNV-1" target="ulqVyQK4VO_cFcRg7Q2b-56">
          <mxGeometry x="0.3333" y="20" relative="1" as="geometry">
            <mxPoint as="offset" />
            <mxPoint x="217.5" y="780" as="sourcePoint" />
            <mxPoint x="223" y="800" as="targetPoint" />
            <Array as="points">
              <mxPoint x="223" y="780" />
            </Array>
          </mxGeometry>
        </mxCell>
        <mxCell id="ulqVyQK4VO_cFcRg7Q2b-56" value="알링~세륙 포함" style="rhombus;whiteSpace=wrap;html=1;" vertex="1" parent="WIyWlLk6GJQsqaUBKTNV-1">
          <mxGeometry x="170" y="822.5" width="100" height="70" as="geometry" />
        </mxCell>
        <mxCell id="ulqVyQK4VO_cFcRg7Q2b-58" value="나머지 47,37과 그외 조합들의 끗으로 결정 만약 같으면 다시 게임" style="strokeWidth=2;html=1;shape=mxgraph.flowchart.loop_limit;whiteSpace=wrap;" vertex="1" parent="WIyWlLk6GJQsqaUBKTNV-1">
          <mxGeometry x="135" y="950" width="170" height="100" as="geometry" />
        </mxCell>
        <mxCell id="ulqVyQK4VO_cFcRg7Q2b-59" value="끝" style="rounded=1;whiteSpace=wrap;html=1;fontSize=12;glass=0;strokeWidth=1;shadow=0;" vertex="1" parent="WIyWlLk6GJQsqaUBKTNV-1">
          <mxGeometry x="-320" y="570" width="120" height="40" as="geometry" />
        </mxCell>
        <mxCell id="ulqVyQK4VO_cFcRg7Q2b-60" value="No" style="rounded=0;html=1;jettySize=auto;orthogonalLoop=1;fontSize=11;endArrow=block;endFill=0;endSize=8;strokeWidth=1;shadow=0;labelBackgroundColor=none;edgeStyle=orthogonalEdgeStyle;exitX=0.5;exitY=1;exitDx=0;exitDy=0;" edge="1" parent="WIyWlLk6GJQsqaUBKTNV-1" source="ulqVyQK4VO_cFcRg7Q2b-56">
          <mxGeometry x="0.3333" y="20" relative="1" as="geometry">
            <mxPoint as="offset" />
            <mxPoint x="190" y="934.5" as="sourcePoint" />
            <mxPoint x="220" y="950" as="targetPoint" />
            <Array as="points" />
          </mxGeometry>
        </mxCell>
        <mxCell id="ulqVyQK4VO_cFcRg7Q2b-63" value="Yes" style="rounded=0;html=1;jettySize=auto;orthogonalLoop=1;fontSize=11;endArrow=block;endFill=0;endSize=8;strokeWidth=1;shadow=0;labelBackgroundColor=none;edgeStyle=orthogonalEdgeStyle;exitX=0;exitY=0.5;exitDx=0;exitDy=0;entryX=1;entryY=0.5;entryDx=0;entryDy=0;" edge="1" parent="WIyWlLk6GJQsqaUBKTNV-1" target="ulqVyQK4VO_cFcRg7Q2b-41">
          <mxGeometry x="0.3333" y="20" relative="1" as="geometry">
            <mxPoint as="offset" />
            <mxPoint x="190" y="622" as="sourcePoint" />
            <mxPoint x="120" y="622" as="targetPoint" />
            <Array as="points">
              <mxPoint x="110" y="622" />
            </Array>
          </mxGeometry>
        </mxCell>
      </root>
    </mxGraphModel>
  </diagram>
</mxfile>
